HIERARCHY
ROOT hip
{
	OFFSET 0.000000 0.000000 0.000000 
	CHANNELS 6 Xposition Yposition Zposition Xrotation Zrotation Yrotation
	JOINT abdomen
	{
		OFFSET 0.000000 3.402643 0.000000 
		CHANNELS 3 Xrotation Zrotation Yrotation
		JOINT chest
		{
			OFFSET 0.000000 8.438565 -0.680529 
			CHANNELS 3 Xrotation Zrotation Yrotation
			JOINT neck
			{
				OFFSET 0.000000 10.207942 -0.272212 
				CHANNELS 3 Xrotation Zrotation Yrotation
				JOINT head
				{
					OFFSET 0.000000 3.130431 0.000000 
					CHANNELS 3 Xrotation Zrotation Yrotation
					End Site
					{
						OFFSET 0.000000 3.130435 0.000000 
					}
				}
			}
			JOINT lCollar
			{
				OFFSET 3.470700 6.669187 -0.816635 
				CHANNELS 3 Yrotation Zrotation Xrotation
				JOINT lShldr
				{
					OFFSET 3.198488 0.000000 0.000000 
					CHANNELS 3 Zrotation Yrotation Xrotation
					JOINT lForeArm
					{
						OFFSET 10.139888 0.000000 0.000000 
						CHANNELS 3 Yrotation Zrotation Xrotation
						JOINT lHand
						{
							OFFSET 8.370511 0.000000 0.000000 
							CHANNELS 3 Zrotation Yrotation Xrotation
							End Site
							{
								OFFSET 4.083176 0.000000 0.000000 
							}
						}
					}
				}
			}
			JOINT rCollar
			{
				OFFSET -3.470700 6.669187 -0.816635 
				CHANNELS 3 Yrotation Zrotation Xrotation
				JOINT rShldr
				{
					OFFSET -3.198488 0.000000 0.000000 
					CHANNELS 3 Zrotation Yrotation Xrotation
					JOINT rForeArm
					{
						OFFSET -10.139888 0.000000 0.000000 
						CHANNELS 3 Yrotation Zrotation Xrotation
						JOINT rHand
						{
							OFFSET -8.370511 0.000000 0.000000 
							CHANNELS 3 Zrotation Yrotation Xrotation
							End Site
							{
								OFFSET -4.083176 0.000000 0.000000 
							}
						}
					}
				}
			}
		}
	}
	JOINT lThigh
	{
		OFFSET 5.308129 -1.633274 1.361059 
		CHANNELS 3 Xrotation Zrotation Yrotation
		JOINT lShin
		{
			OFFSET -2.041588 -20.007561 0.000000 
			CHANNELS 3 Xrotation Zrotation Yrotation
			JOINT lFoot
			{
				OFFSET 0.000000 -19.190928 -1.224953 
				CHANNELS 3 Xrotation Yrotation Zrotation
				End Site
				{
					OFFSET 0.000000 -2.449906 4.627600 
				}
			}
		}
	}
	JOINT rThigh
	{
		OFFSET -5.308129 -1.633274 1.361059 
		CHANNELS 3 Xrotation Zrotation Yrotation
		JOINT rShin
		{
			OFFSET 2.041588 -20.007561 0.000000 
			CHANNELS 3 Xrotation Zrotation Yrotation
			JOINT rFoot
			{
				OFFSET 0.000000 -19.190928 -1.224953 
				CHANNELS 3 Xrotation Yrotation Zrotation
				End Site
				{
					OFFSET 0.000000 -2.449906 4.627600 
				}
			}
		}
	}
}
MOTION
Frames: 18
Frame Time: 0.016667
0.842542 41.989693 0.477174 2.398200 9.786510 -3.497670 -17.608400 -0.415589 4.952000 26.423100 4.332750 2.368780 18.205299 -25.960600 21.742300 17.559700 -2.781090 12.527300 2.000000 -2.000000 0.000000 -92.387100 -6.369150 162.542999 21.679899 -0.341893 0.050566 0.047456 -0.029960 -147.682999 -2.000000 2.000000 0.000000 88.474297 -0.394992 169.490997 -29.541300 0.333792 0.067411 -0.073749 0.054619 -156.824005 -3.133246 -8.138300 -8.623868 9.719793 2.507765 0.852134 -14.259973 15.402107 5.500544 -3.970108 -11.557672 0.917593 22.619982 -4.028338 -1.489778 -32.638508 -26.306591 -16.255116 
0.831536 42.025921 0.483407 2.633740 9.492100 -3.559020 -17.707100 -0.428154 4.918880 26.490200 4.147660 2.345040 16.693800 -27.135401 21.465200 17.012600 -3.709300 12.253000 2.000000 -2.000000 0.000000 -92.221199 -6.398160 162.669998 21.572500 -0.341988 0.050328 0.047466 -0.030013 -147.703003 -2.000000 2.000000 0.000000 88.601196 -0.423968 169.354004 -29.004200 0.334418 0.066293 -0.072929 0.052298 -155.945007 -3.388797 -7.822642 -8.703374 9.876521 2.566617 0.863360 -14.257829 15.659401 5.507746 -4.043424 -11.237876 1.225097 22.354574 -3.952866 -1.467439 -32.520340 -26.151197 -16.106125 
0.826957 42.030037 0.493586 2.566510 9.765770 -3.665630 -17.815201 -0.640776 4.991390 26.322599 3.993430 2.327120 18.489799 -24.400200 21.823500 17.378000 -2.060680 12.580900 2.000000 -2.000000 0.000000 -91.938103 -6.329370 162.856003 21.445601 -0.342099 0.050046 0.047497 -0.030174 -147.761993 -2.000000 2.000000 0.000000 88.854897 -0.550188 169.042007 -28.750299 0.334711 0.065762 -0.072550 0.051185 -155.524994 -3.319358 -8.120163 -8.752044 9.868970 2.555118 0.852825 -14.189828 15.874360 5.579053 -4.023438 -11.497265 1.030306 22.290199 -4.032807 -1.452480 -32.492069 -26.118776 -16.082544 
0.829079 42.047131 0.490264 2.586560 9.794890 -3.758670 -17.962099 -0.759694 5.036250 26.135401 3.810050 2.315710 18.620899 -23.268700 21.148701 16.995199 -1.758570 12.264400 2.000000 -2.000000 0.000000 -91.773201 -6.051980 164.584000 21.845900 -0.341746 0.050934 0.048678 -0.035794 -149.811996 -2.000000 2.000000 0.000000 89.079597 -0.804208 169.089996 -28.857700 0.334587 0.065987 -0.072307 0.050459 -155.251999 -3.380442 -8.166463 -8.597268 9.904070 2.539298 0.870885 -14.113855 15.935231 5.565536 -4.021266 -11.555654 0.977846 22.131441 -4.030204 -1.442950 -32.270271 -26.143570 -15.955481 
0.827189 42.062294 0.477828 2.685970 9.833150 -3.670230 -18.149599 -0.947184 5.065090 25.977200 3.548550 2.290190 18.739201 -21.899300 20.438101 16.602900 -1.388770 11.929800 2.000000 -2.000000 0.000000 -91.401802 -5.867170 164.261002 21.318600 -0.342209 0.049764 0.047441 -0.029879 -147.654007 -2.000000 2.000000 0.000000 89.431099 -0.999040 168.884003 -28.476900 0.335023 0.065190 -0.071592 0.058013 -154.421997 -3.569121 -8.202669 -8.385961 9.997266 2.530811 0.878307 -13.830147 15.786884 5.438936 -4.059888 -11.561993 1.087375 22.028297 -4.047820 -1.426620 -32.468697 -26.322817 -16.160629 
0.826052 42.054195 0.505832 2.576570 9.785210 -3.819360 -18.114000 -0.917904 4.920210 26.075701 3.654900 2.228440 19.219200 -20.541000 19.911699 16.474701 -0.778906 11.657700 2.000000 -2.000000 0.000000 -91.538803 -5.807700 164.641998 21.377199 -0.342158 0.049895 0.047533 -0.030362 -147.830002 -2.000000 2.000000 0.000000 89.235901 -0.765512 169.246002 -28.369400 0.335145 0.064964 -0.071551 0.057882 -154.373001 -3.426486 -8.155950 -8.435399 10.057924 2.494041 0.903957 -13.812334 15.895255 5.537007 -3.934409 -11.527990 1.153425 21.915817 -4.066303 -1.430575 -32.404587 -26.471872 -16.175413 
0.821339 42.049435 0.548355 2.476610 9.668870 -3.967910 -18.107201 -0.899932 4.801160 26.164000 3.693230 2.179260 20.106199 -19.549700 19.021700 16.621099 -0.368976 11.249400 2.000000 -2.000000 0.000000 -91.616997 -5.777870 164.876007 21.377199 -0.342158 0.049895 0.047549 -0.030443 -147.858994 -2.000000 2.000000 0.000000 89.187103 -0.619418 169.412994 -28.281601 0.335245 0.064780 -0.071543 0.057856 -154.363007 -3.500991 -8.121378 -8.432768 10.658829 2.588783 0.920894 -14.152860 15.963583 5.554474 -3.697604 -11.384388 1.210589 21.731493 -4.088134 -1.395800 -32.251633 -26.594675 -16.112080 
0.827172 42.053425 0.583526 2.377070 9.601260 -4.280080 -18.138300 -0.886329 4.726230 26.173901 3.712610 2.152500 20.903000 -18.580000 18.014200 16.729099 0.021524 10.770500 2.000000 -2.000000 0.000000 -91.705002 -5.611220 165.149002 21.513901 -0.342039 0.050198 0.047575 -0.030577 -147.908005 -2.000000 2.000000 0.000000 89.167702 -0.541797 169.628006 -28.242500 0.335289 0.064697 -0.071766 0.058560 -154.626999 -3.435526 -8.052907 -8.333748 10.867823 2.558892 0.944398 -14.263409 15.985583 5.649808 -3.590830 -11.338933 1.120168 21.534500 -4.126389 -1.373765 -31.834620 -26.559361 -15.813222 
0.840969 42.065636 0.606399 2.346480 9.474620 -4.651440 -18.228901 -0.805567 4.580430 26.115601 3.771290 2.095790 21.483700 -17.672899 16.916300 16.730101 0.364464 10.193600 2.000000 -2.000000 0.000000 -91.871002 -5.327950 165.177994 21.679899 -0.341893 0.050566 0.047632 -0.030872 -148.014999 -2.000000 2.000000 0.000000 89.011597 -0.552526 170.037994 -28.223000 0.335311 0.064657 -0.072111 0.059627 -155.026993 -3.476037 -7.950737 -8.169536 11.115022 2.577064 0.961712 -14.357418 16.100857 5.739842 -3.547971 -11.281944 1.013052 21.256985 -4.121193 -1.373108 -31.206326 -26.406977 -15.381355 
0.855942 42.093132 0.630348 2.461940 8.995730 -4.974780 -18.361099 -0.635722 4.283050 26.125601 3.800390 2.001610 21.972500 -16.719801 15.744100 16.663200 0.726793 9.561560 2.000000 -2.000000 0.000000 -92.192802 -5.202550 164.503998 21.533400 -0.342022 0.050242 0.047415 -0.029745 -147.604996 -2.000000 2.000000 0.000000 88.709198 -0.593288 170.759995 -28.223000 0.335311 0.064657 -0.072725 0.051703 -155.720993 -3.744051 -7.522682 -8.061205 11.619246 2.653665 0.979405 -14.605716 16.298912 5.789838 -3.475764 -10.795461 1.045250 20.729162 -4.068268 -1.355924 -30.358067 -26.309040 -14.931215 
0.868826 42.096863 0.650440 2.343930 9.094080 -5.301640 -18.415100 -0.617740 4.052740 26.097500 3.994980 1.901320 22.536301 -15.764800 14.571900 16.684799 1.079230 8.928180 2.000000 -2.000000 0.000000 -92.495201 -5.086640 163.947006 21.455299 -0.342090 0.050068 0.047310 -0.029180 -147.399994 -2.000000 2.000000 0.000000 88.435997 -0.614569 171.501999 -28.349899 0.335167 0.064923 -0.073298 0.053357 -156.345993 -3.702826 -7.678351 -7.885547 11.814464 2.679538 0.998188 -14.636687 16.431828 5.833989 -3.406884 -10.969464 0.909962 20.617878 -4.121579 -1.326250 -29.905897 -26.474392 -14.664457 
0.874951 42.113049 0.668078 2.361750 8.791470 -5.634690 -18.506800 -0.496552 3.820030 26.078501 4.082590 1.820510 22.815201 -14.986100 13.238300 16.607901 1.270330 8.197800 2.000000 -2.000000 0.000000 -92.671204 -4.733960 164.434006 21.767799 -0.341816 0.050761 0.047638 -0.030899 -148.024994 -2.000000 2.000000 0.000000 88.250603 -0.634861 171.824997 -28.564800 0.334923 0.065374 -0.073307 0.053383 -156.354996 -3.645526 -7.335889 -7.797425 11.750665 2.651489 0.996993 -14.536266 16.638399 5.918286 -3.402403 -10.629254 1.109121 20.399881 -4.115659 -1.325318 -29.464760 -26.371502 -14.420578 
0.884913 42.103413 0.690803 2.185100 8.997470 -6.005390 -18.528999 -0.500378 3.698480 26.011400 4.287210 1.766740 23.091900 -14.030400 11.972300 16.541700 1.556810 7.478560 2.000000 -2.000000 0.000000 -92.788803 -4.429700 165.098007 21.992399 -0.341616 0.051259 0.047945 -0.032427 -148.582001 -2.000000 2.000000 0.000000 88.113899 -0.566479 171.815002 -28.633101 0.334845 0.065517 -0.072849 0.052065 -155.856995 -3.474909 -7.618450 -7.809964 11.832151 2.688119 0.988976 -14.636642 16.995300 6.019536 -3.402742 -10.901776 1.188956 20.504240 -4.140619 -1.319600 -29.762754 -26.268993 -14.497706 
0.901460 42.109062 0.722011 2.175930 9.114630 -6.412680 -18.580000 -0.543376 3.611580 26.050900 4.335540 1.715740 23.412600 -12.852900 10.858500 16.545401 1.966730 6.827730 2.000000 -2.000000 0.000000 -92.837601 -4.351570 165.097000 21.924101 -0.341677 0.051107 0.047907 -0.032240 -148.514008 -2.000000 2.000000 0.000000 -91.934898 -179.569000 -7.862370 -28.613600 0.334867 0.065476 -0.072929 0.052298 -155.945007 -3.343325 -7.745705 -7.850983 11.646228 2.624328 0.986382 -14.620214 17.347836 6.199188 -3.514352 -11.093534 1.204428 20.490946 -4.157794 -1.322690 -29.480619 -26.319427 -14.292684 
0.916567 42.118458 0.750032 2.185820 9.114570 -6.840820 -18.670200 -0.632240 3.541470 26.040400 4.238400 1.666620 23.852301 -11.532000 9.765560 16.628201 2.404350 6.196000 2.000000 -2.000000 0.000000 -92.788498 -4.244920 164.764999 21.777599 -0.341807 0.050783 0.047685 -0.031141 -148.113007 -2.000000 2.000000 0.000000 -91.856499 -179.587006 -7.149440 -28.789400 0.334666 0.065844 -0.073880 0.054978 -156.960999 -3.324657 -7.777133 -7.669598 11.673165 2.638187 0.987243 -14.635811 17.608507 6.276352 -3.650346 -11.168534 1.146482 20.441851 -4.151943 -1.312096 -28.805452 -26.317436 -13.922847 
0.924205 42.119339 0.773993 2.056740 9.027480 -7.274200 -18.749901 -0.649571 3.467550 25.952200 4.219570 1.628990 24.253700 -10.328900 8.663900 16.701300 2.784650 5.572110 2.000000 -2.000000 0.000000 -92.759102 -4.059680 164.628006 21.709200 -0.341867 0.050631 0.047533 -0.030362 -147.830002 -2.000000 2.000000 0.000000 -91.817299 -179.537003 -6.651510 -29.023800 0.334396 0.066334 -0.074605 0.056926 -157.703003 -3.231759 -7.751417 -7.468377 11.885182 2.676508 0.997193 -14.830267 17.784939 6.365569 -3.572013 -11.122159 1.274175 20.352373 -4.152927 -1.322307 -28.637156 -26.018942 -13.710001 
0.932256 42.126801 0.797832 1.987200 8.969300 -7.804520 -18.769300 -0.603139 3.452430 25.991699 4.277630 1.637410 24.399401 -9.325850 7.624230 16.695299 3.061070 4.969650 2.000000 -2.000000 0.000000 -92.807899 -3.962030 164.628006 21.679899 -0.341893 0.050566 0.047456 -0.029960 -147.682999 -2.000000 2.000000 0.000000 -91.836800 -179.557007 -6.563570 -29.209299 0.334180 0.066721 -0.074624 0.056977 -157.722000 -3.199539 -7.746729 -7.267854 12.069477 2.704452 1.006250 -15.020563 18.063530 6.501243 -3.615118 -11.072585 1.583571 20.240091 -4.162150 -1.304166 -28.531086 -25.832689 -13.540474 
0.938022 42.136440 0.829629 2.006760 8.930150 -8.203220 -18.760799 -0.590210 3.375680 26.158701 4.344470 1.607620 24.420700 -8.455380 6.650680 16.639700 3.271550 4.398150 2.000000 -2.000000 0.000000 -92.876198 -3.962460 164.442001 21.533400 -0.342022 0.050242 0.047275 -0.028992 -147.332001 -2.000000 2.000000 0.000000 -91.817299 -179.615005 -6.651320 -29.385099 0.333975 0.067086 -0.074421 0.056440 -157.516998 -3.235517 -7.720265 -7.047196 12.190262 2.700830 1.004443 -15.060562 18.203278 6.574480 -3.701318 -11.057236 1.734380 20.161764 -4.150719 -1.283014 -28.184601 -25.853262 -13.356006 
